#!Matlab matrix to amc conversion
:FULLY-SPECIFIED
:DEGREES
73
root 0.940078 1.913049 33.811235 1.003083 1.195625 -5.785666
lowerback -4.358968 -0.575164 4.025299
upperback -1.497202 -0.979019 4.185923
thorax 1.014223 -0.450210 2.014481
lowerneck -29.463334 -3.592698 -12.698361
upperneck 20.756798 -2.449170 10.775300
head 12.085968 -0.711928 5.786039
rclavicle -0.000000 0.000000
rhumerus -32.249913 -3.241759 -67.521860
rradius 7.315151
rwrist 14.002596
rhand -28.856200 -18.800500
rfingers 7.125020
rthumb -2.212790 -48.768800
lclavicle -0.000000 0.000000
lhumerus -32.794144 -34.809207 97.480939
lradius 30.320574
lwrist -1.183478
lhand -19.668800 -28.799300
lfingers 7.125020
lthumb 6.659510 1.076010
rfemur -8.455264 0.234981 26.499735
rtibia 27.475382
rfoot -15.921797 4.150883
rtoes -20.766800
lfemur -27.828494 22.258451 -16.246897
ltibia 83.312150
lfoot -21.876192 19.815027
ltoes -22.051700
74
root 0.855793 1.778387 34.072049 0.342283 1.674432 -4.128469
lowerback -5.697173 -1.518959 3.659975
upperback -2.013036 -2.209473 3.465992
thorax 1.275072 -1.070752 1.447765
lowerneck -29.748077 -3.538654 -12.953007
upperneck 20.421590 -2.582893 12.095405
head 12.098997 -0.614834 6.339527
rclavicle -0.000000 0.000000
rhumerus -34.371498 -0.917685 -67.832858
rradius 6.775944
rwrist 17.538253
rhand -28.856200 -18.800500
rfingers 7.125020
rthumb -2.212790 -48.768800
lclavicle -0.000000 0.000000
lhumerus -25.286461 -26.929813 95.564028
lradius 26.041164
lwrist -6.937073
lhand -19.668800 -28.799300
lfingers 7.125020
lthumb 6.659510 1.076010
rfemur -7.661003 -4.562544 24.525821
rtibia 24.596881
rfoot -11.891423 8.270686
rtoes -20.766800
lfemur -22.273502 21.511724 -16.742123
ltibia 75.678075
lfoot -24.041574 20.440917
ltoes -22.051700
75
root 0.763184 1.629471 34.320394 1.618835 1.715309 -2.212949
lowerback -6.245788 -2.130517 2.444465
upperback -2.070126 -2.979644 2.671390
thorax 1.558413 -1.483740 1.319798
lowerneck -28.298879 -3.383846 -12.882313
upperneck 18.612323 -2.758785 13.290224
head 11.202731 -0.542059 6.675002
rclavicle -0.000000 0.000000
rhumerus -37.651554 5.114902 -71.488139
rradius 10.229036
rwrist 13.376043
rhand -28.856200 -18.800500
rfingers 7.125020
rthumb -2.212790 -48.768800
lclavicle -0.000000 0.000000
lhumerus -20.256025 -5.614422 87.730596
lradius 21.510321
lwrist -16.458754
lhand -19.668800 -28.799300
lfingers 7.125020
lthumb 6.659510 1.076010
rfemur -10.146636 -7.308344 23.852918
rtibia 25.476141
rfoot -11.261001 9.795526
rtoes -20.766800
lfemur -20.844369 18.698431 -18.950638
ltibia 66.805482
lfoot -23.825472 17.453124
ltoes -22.051700
76
root 0.675853 1.531411 34.620795 3.550291 1.675038 -0.485307
lowerback -6.089030 -2.307333 1.286361
upperback -1.361172 -3.179970 1.910598
thorax 2.224289 -1.622399 1.221027
lowerneck -26.046123 -3.355397 -12.208354
upperneck 16.053186 -3.125492 13.735824
head 9.857251 -0.619088 6.529356
rclavicle -0.000000 0.000000
rhumerus -40.469509 10.786097 -76.241055
rradius 16.058092
rwrist 3.528084
rhand -28.856200 -18.800500
rfingers 7.125020
rthumb -2.212790 -48.768800
lclavicle -0.000000 0.000000
lhumerus -21.060080 21.449079 74.222219
lradius 17.728406
lwrist -32.903700
lhand -19.668800 -28.799300
lfingers 7.125020
lthumb 6.659510 1.076010
rfemur -14.291239 -8.561498 23.677688
rtibia 30.334717
rfoot -13.130554 10.239789
rtoes -20.766800
lfemur -22.516211 15.194705 -22.191912
ltibia 62.294186
lfoot -21.943726 10.498726
ltoes -22.051700
77
root 0.588215 1.523698 34.983696 5.632944 1.482833 0.317807
lowerback -5.600012 -2.007541 0.796311
upperback -0.126459 -2.751597 1.453293
thorax 3.212742 -1.444719 1.077890
lowerneck -23.581971 -3.536641 -11.272512
upperneck 13.275289 -3.738895 13.851053
head 8.427445 -0.857740 6.152429
rclavicle -0.000000 0.000000
rhumerus -40.610949 14.749276 -80.245380
rradius 23.169469
rwrist -7.469460
rhand -28.856200 -18.800500
rfingers 7.125020
rthumb -2.212790 -48.768800
lclavicle -0.000000 0.000000
lhumerus -28.994865 44.807122 56.466191
lradius 15.192286
lwrist -54.145785
lhand -19.668800 -28.799300
lfingers 7.125020
lthumb 6.659510 1.076010
rfemur -17.850081 -9.382166 23.768496
rtibia 37.106389
rfoot -16.683364 10.736455
rtoes -20.766800
lfemur -27.353049 12.419254 -25.367834
ltibia 63.353466
lfoot -19.542745 2.180055
ltoes -22.051700
78
root 0.497402 1.601858 35.368623 8.012503 0.770106 -1.092353
lowerback -5.242838 -1.184509 1.725493
upperback 0.946930 -1.636138 1.732426
thorax 4.094214 -0.912452 0.912910
lowerneck -21.264422 -3.968446 -10.937314
upperneck 10.446897 -4.644249 14.707507
head 7.130329 -1.213233 6.117840
rclavicle -0.000000 0.000000
rhumerus -36.784495 17.935520 -82.052172
rradius 31.126865
rwrist -15.671323
rhand -28.856200 -18.800500
rfingers 7.125020
rthumb -2.212790 -48.768800
lclavicle -0.000000 0.000000
lhumerus -42.518204 56.617828 37.728482
lradius 13.524848
lwrist -72.688236
lhand -19.668800 -28.799300
lfingers 7.125020
lthumb 6.659510 1.076010
rfemur -16.872250 -10.056313 24.908531
rtibia 40.221248
rfoot -20.897555 11.553535
rtoes -20.766800
lfemur -35.924524 11.400467 -26.458401
ltibia 65.958887
lfoot -17.070600 -3.525576
ltoes -22.051700
79
root 0.420073 1.721818 35.729268 10.867672 -0.722244 -5.662163
lowerback -5.076804 0.288832 4.900920
upperback 1.245469 0.268871 2.892663
thorax 4.357779 0.033021 0.398121
lowerneck -19.357786 -4.950066 -12.468075
upperneck 7.657785 -6.274565 17.774941
head 6.185917 -1.781525 7.147146
rclavicle 0.000000 -0.000000
rhumerus -29.996886 21.052773 -80.426362
rradius 41.139984
rwrist -21.602644
rhand -28.856200 -18.800500
rfingers 7.125020
rthumb -2.212790 -48.768800
lclavicle 0.000000 -0.000000
lhumerus -56.556226 52.743848 23.943763
lradius 11.423011
lwrist -77.608079
lhand -19.668800 -28.799300
lfingers 7.125020
lthumb 6.659510 1.076010
rfemur -8.143951 -9.192823 27.949694
rtibia 34.782751
rfoot -22.201800 12.193385
rtoes -20.766800
lfemur -46.176452 11.527034 -23.014620
ltibia 62.112893
lfoot -14.015646 -3.266857
ltoes -22.051700
80
root 0.389573 1.814988 36.054125 12.857522 -2.040337 -10.806381
lowerback -4.178583 2.064094 8.681685
upperback 0.747935 2.421442 3.850309
thorax 3.518181 1.136864 -0.707319
lowerneck -17.827562 -6.506168 -16.463516
upperneck 5.920736 -8.553112 22.857479
head 5.868245 -2.588663 9.318435
rclavicle 0.000000 -0.000000
rhumerus -26.074250 23.202947 -77.362783
rradius 51.993398
rwrist -29.848310
rhand -28.856200 -18.800500
rfingers 7.125020
rthumb -2.212790 -48.768800
lclavicle 0.000000 -0.000000
lhumerus -62.502479 37.565499 23.018495
lradius 9.249394
lwrist -60.434206
lhand -19.668800 -28.799300
lfingers 7.125020
lthumb 6.659510 1.076010
rfemur 2.468549 -5.488105 31.294301
rtibia 27.116667
rfoot -13.923749 10.047084
rtoes -20.766800
lfemur -47.921462 10.596724 -16.364576
ltibia 45.319831
lfoot -10.012773 2.695783
ltoes -22.051700
81
root 0.413214 1.831148 36.340256 11.999236 -1.714316 -10.069415
lowerback -2.354946 2.501692 7.086973
upperback 0.584560 2.916420 3.336850
thorax 2.363598 1.416340 -0.337087
lowerneck -16.567372 -6.506604 -18.819167
upperneck 5.404385 -8.115593 23.500573
head 5.324607 -2.550811 10.004671
rclavicle 0.000000 0.000000
rhumerus -26.274755 26.281312 -78.895862
rradius 53.231323
rwrist -34.453654
rhand -28.856200 -18.800500
rfingers 7.125020
rthumb -2.212790 -48.768800
lclavicle 0.000000 0.000000
lhumerus -60.014407 28.521153 31.333689
lradius 10.164683
lwrist -40.464955
lhand -19.668800 -28.799300
lfingers 7.125020
lthumb 6.659510 1.076010
rfemur 1.305768 -2.967988 30.852377
rtibia 32.013778
rfoot -3.240359 1.971795
rtoes -20.766800
lfemur -38.342924 8.278223 -15.159564
ltibia 30.026363
lfoot -6.285563 5.616511
ltoes -22.051700
82
root 0.430072 1.841852 36.592829 9.932573 -2.670611 -3.690644
lowerback -1.660010 1.829206 0.474643
upperback 0.925638 2.283049 2.187103
thorax 2.035126 1.089420 2.164267
lowerneck -16.445040 -4.827766 -17.281074
upperneck 7.728212 -5.504607 19.511740
head 5.565570 -1.700686 8.743370
rclavicle 0.000000 0.000000
rhumerus -24.519149 27.286188 -81.270266
rradius 48.114765
rwrist -28.501996
rhand -28.856200 -18.800500
rfingers 7.125020
rthumb -2.212790 -48.768800
lclavicle 0.000000 0.000000
lhumerus -54.533052 27.273831 41.618385
lradius 10.881384
lwrist -36.661644
lhand -19.668800 -28.799300
lfingers 7.125020
lthumb 6.659510 1.076010
rfemur -7.031223 -3.295994 24.257012
rtibia 49.067950
rfoot 3.501894 -6.373918
rtoes -20.766800
lfemur -32.541255 5.301889 -20.823671
ltibia 31.179997
lfoot -9.035400 3.660948
ltoes -22.051700
83
root 0.434998 1.908507 36.913029 8.728773 -3.911601 2.055414
lowerback -2.199304 1.291135 -5.096368
upperback 0.886570 1.847724 1.318779
thorax 2.036354 0.861628 4.360127
lowerneck -17.331925 -3.813123 -15.203789
upperneck 10.484732 -4.127150 16.564636
head 6.424313 -1.212326 7.596123
rclavicle 0.000000 0.000000
rhumerus -22.337636 25.066525 -81.504074
rradius 43.746780
rwrist -22.094211
rhand -28.856200 -18.800500
rfingers 7.125020
rthumb -2.212790 -48.768800
lclavicle 0.000000 0.000000
lhumerus -48.001521 22.304064 54.776033
lradius 12.470563
lwrist -31.475964
lhand -19.668800 -28.799300
lfingers 7.125020
lthumb 6.659510 1.076010
rfemur -14.246178 -3.909100 17.661306
rtibia 63.892468
rfoot 3.726991 -12.799597
rtoes -20.766800
lfemur -29.826377 3.219005 -25.927095
ltibia 33.417010
lfoot -12.214138 2.767196
ltoes -22.051700
84
root 0.457403 2.002236 37.309245 8.644653 -4.159476 3.767245
lowerback -2.849511 0.880465 -6.724180
upperback 0.685981 1.408284 1.243007
thorax 2.156563 0.635549 5.168418
lowerneck -17.984987 -3.459595 -14.065707
upperneck 12.377175 -3.736115 15.397514
head 7.121597 -1.067746 7.085408
rclavicle -0.000000 0.000000
rhumerus -21.902712 23.623686 -81.549234
rradius 40.092622
rwrist -18.003324
rhand -28.856200 -18.800500
rfingers 7.125020
rthumb -2.212790 -48.768800
lclavicle -0.000000 0.000000
lhumerus -42.802406 15.912491 64.570282
lradius 13.617978
lwrist -26.126703
lhand -19.668800 -28.799300
lfingers 7.125020
lthumb 6.659510 1.076010
rfemur -19.545304 -4.534810 16.456979
rtibia 70.031391
rfoot -3.355250 -14.852303
rtoes -20.766800
lfemur -27.635369 1.510790 -26.989431
ltibia 33.319030
lfoot -14.092284 3.509176
ltoes -22.051700
85
root 0.481201 2.082731 37.735102 8.769728 -3.794914 4.135367
lowerback -3.157296 0.400610 -7.107327
upperback 0.475743 0.803984 1.462216
thorax 2.158802 0.331511 5.573726
lowerneck -18.770251 -3.334701 -13.199458
upperneck 14.627195 -3.639025 14.438687
head 8.022346 -1.060551 6.670901
rclavicle 0.000000 -0.000000
rhumerus -22.593605 23.267975 -81.724670
rradius 37.099874
rwrist -15.037475
rhand -28.856200 -18.800500
rfingers 7.125020
rthumb -2.212790 -48.768800
lclavicle 0.000000 -0.000000
lhumerus -38.993986 9.979720 71.469446
lradius 14.713444
lwrist -21.316548
lhand -19.668800 -28.799300
lfingers 7.125020
lthumb 6.659510 1.076010
rfemur -23.949872 -4.907208 17.235233
rtibia 71.913251
rfoot -11.241861 -14.061719
rtoes -20.766800
lfemur -25.755176 -0.217746 -26.905443
ltibia 33.359133
lfoot -15.940531 4.498077
ltoes -22.051700
86
root 0.499795 2.128299 38.179571 8.717983 -3.252745 4.132719
lowerback -3.092511 0.015621 -7.039777
upperback 0.239923 0.284718 1.695542
thorax 1.934038 0.079864 5.746497
lowerneck -19.669334 -3.301542 -12.524652
upperneck 16.689016 -3.590324 13.437623
head 8.887609 -1.089856 6.263101
rclavicle 0.000000 -0.000000
rhumerus -23.931600 23.185463 -81.913474
rradius 35.266015
rwrist -13.491065
rhand -28.856200 -18.800500
rfingers 7.125020
rthumb -2.212790 -48.768800
lclavicle 0.000000 -0.000000
lhumerus -36.638224 4.205182 76.423206
lradius 16.465415
lwrist -16.086765
lhand -19.668800 -28.799300
lfingers 7.125020
lthumb 6.659510 1.076010
rfemur -27.221522 -4.909006 18.201851
rtibia 71.464446
rfoot -16.074184 -13.012301
rtoes -20.766800
lfemur -24.124594 -1.272238 -26.741889
ltibia 33.614519
lfoot -17.432781 5.104376
ltoes -22.051700
